<svg width="99" height="79" viewBox="0 0 99 79" fill="none" xmlns="http://www.w3.org/2000/svg">
<g clip-path="url(#clip0_201_3)">
<path d="M45.3218 19.2183C46.036 19.2183 46.613 19.4166 47.0531 19.8132C47.4931 20.2036 47.7131 20.7513 47.7131 21.4565V24.5257H46.1983V21.6359C46.1983 21.2204 46.0792 20.9024 45.8412 20.6821C45.6032 20.4554 45.2785 20.3421 44.8674 20.3421C44.449 20.3421 44.1172 20.4554 43.8719 20.6821C43.6339 20.9024 43.5148 21.2204 43.5148 21.6359V24.5257H42V19.2938H43.5148V19.9454C43.7168 19.7188 43.9729 19.5425 44.2831 19.4166C44.6005 19.2844 44.9467 19.2183 45.3218 19.2183Z" fill="white"/>
<path d="M50.9173 20.3799V22.9108C50.9173 23.0871 50.9642 23.2162 51.058 23.298C51.159 23.3736 51.3249 23.4113 51.5557 23.4113H52.259V24.5257H51.3069C50.0301 24.5257 49.3917 23.9843 49.3917 22.9014V20.3799H48.6775V19.2938H49.3917V18H50.9173V19.2938H52.259V20.3799H50.9173Z" fill="white"/>
<path d="M56.0104 24.6107C55.4333 24.6107 54.9139 24.5005 54.4523 24.2802C53.9906 24.0535 53.6263 23.7356 53.3594 23.3263C53.0997 22.9171 52.9699 22.4449 52.9699 21.9098C52.9699 21.3746 53.1033 20.9024 53.3702 20.4932C53.6444 20.0839 54.0159 19.7692 54.4847 19.5488C54.9536 19.3221 55.4766 19.2088 56.0537 19.2088C56.6308 19.2088 57.1537 19.3221 57.6226 19.5488C58.0915 19.7692 58.4594 20.0839 58.7263 20.4932C59.0004 20.9024 59.1374 21.3746 59.1374 21.9098C59.1374 22.4449 58.9968 22.9171 58.7155 23.3263C58.4414 23.7356 58.0662 24.0535 57.5901 24.2802C57.1213 24.5005 56.5947 24.6107 56.0104 24.6107ZM56.0104 23.4586C56.2845 23.4586 56.5406 23.4019 56.7786 23.2886C57.0239 23.1689 57.2187 22.9927 57.3629 22.7597C57.5072 22.5268 57.5793 22.2434 57.5793 21.9098C57.5793 21.4124 57.4279 21.0315 57.1249 20.7671C56.8291 20.4963 56.4648 20.361 56.032 20.361C55.5992 20.361 55.2349 20.4963 54.9392 20.7671C54.6506 21.0315 54.5064 21.4124 54.5064 21.9098C54.5064 22.4071 54.647 22.7912 54.9284 23.0619C55.2169 23.3263 55.5776 23.4586 56.0104 23.4586Z" fill="white"/>
<path d="M63.5705 19.2183C64.2846 19.2183 64.8617 19.4166 65.3017 19.8132C65.7417 20.2036 65.9618 20.7513 65.9618 21.4565V24.5257H64.4469V21.6359C64.4469 21.2204 64.3279 20.9024 64.0898 20.6821C63.8518 20.4554 63.5272 20.3421 63.116 20.3421C62.6976 20.3421 62.3658 20.4554 62.1206 20.6821C61.8825 20.9024 61.7635 21.2204 61.7635 21.6359V24.5257H60.2486V19.2938H61.7635V19.9454C61.9655 19.7188 62.2216 19.5425 62.5317 19.4166C62.8491 19.2844 63.1954 19.2183 63.5705 19.2183Z" fill="white"/>
<path d="M73.137 19.2938L69.4257 27H67.8134L69.1119 24.3935L66.7098 19.2938H68.4086L69.9559 22.9486L71.5248 19.2938H73.137Z" fill="white"/>
<path d="M73.5641 21.8909C73.5641 21.362 73.6831 20.893 73.9212 20.4837C74.1664 20.0745 74.4946 19.7597 74.9058 19.5393C75.3242 19.319 75.7895 19.2088 76.3016 19.2088C76.7489 19.2088 77.1384 19.2875 77.4702 19.4449C77.8092 19.6023 78.0798 19.8006 78.2817 20.0399V19.2938H79.8074V24.5257H78.2817V23.7608C78.087 24.0063 77.8165 24.2109 77.4702 24.3746C77.1312 24.532 76.738 24.6107 76.2908 24.6107C75.7858 24.6107 75.3242 24.4974 74.9058 24.2707C74.4946 24.0441 74.1664 23.7261 73.9212 23.3169C73.6831 22.9014 73.5641 22.426 73.5641 21.8909ZM78.2817 21.9098C78.2817 21.5887 78.2096 21.3148 78.0653 21.0881C77.9211 20.8552 77.7263 20.6789 77.481 20.5593C77.2358 20.4334 76.9725 20.3704 76.6911 20.3704C76.4098 20.3704 76.1501 20.4302 75.9121 20.5498C75.674 20.6695 75.4793 20.8457 75.3278 21.0787C75.1835 21.3054 75.1114 21.5761 75.1114 21.8909C75.1114 22.2057 75.1835 22.4827 75.3278 22.7219C75.4793 22.9549 75.674 23.1343 75.9121 23.2602C76.1574 23.3861 76.417 23.4491 76.6911 23.4491C76.9725 23.4491 77.2358 23.3893 77.481 23.2697C77.7263 23.1438 77.9211 22.9675 78.0653 22.7408C78.2096 22.5079 78.2817 22.2308 78.2817 21.9098Z" fill="white"/>
<path d="M84.6087 19.2183C85.3229 19.2183 85.8999 19.4166 86.34 19.8132C86.78 20.2036 87 20.7513 87 21.4565V24.5257H85.4852V21.6359C85.4852 21.2204 85.3661 20.9024 85.1281 20.6821C84.89 20.4554 84.5654 20.3421 84.1543 20.3421C83.7359 20.3421 83.4041 20.4554 83.1588 20.6821C82.9208 20.9024 82.8017 21.2204 82.8017 21.6359V24.5257H81.2869V19.2938H82.8017V19.9454C83.0037 19.7188 83.2598 19.5425 83.57 19.4166C83.8874 19.2844 84.2336 19.2183 84.6087 19.2183Z" fill="white"/>
<path d="M30.7187 28.8508H24.8117H19.1161L11.4432 48.3078C5.98459 50.0841 4.0025 51.4778 0.0309939 60.6227L21.5367 5.75139C24.8117 -1.43135 25.1378 -2.388 28.3397 5.75139L35.2457 28.5396C32.9326 29.4629 32.4549 30.8143 32.6385 34.2787L30.7187 28.8508ZM29.1327 24.2798C28.9696 19.3479 27.7463 18.3366 24.9174 12.3629C22.2032 17.699 20.702 19.612 20.702 24.2798H29.1327Z" fill="white"/>
<path d="M30.2374 55.1947H18.6348L16.7149 60.6227H10.5798L21.0555 32.0953H27.8584L38.3342 60.6227H32.1572L30.2374 55.1947ZM28.6514 50.6238L24.4361 38.7068L20.2208 50.6238H28.6514Z" fill="white"/>
<path d="M63.4935 40.9515C63.4935 42.4751 63.1179 43.9035 62.3666 45.2367C61.6432 46.5699 60.4885 47.6446 58.9025 48.4608C57.3444 49.277 55.3689 49.6852 52.976 49.6852H48.0929V59.6232C45.9136 59.6845 44.6186 59.6313 42.2499 59.6232V32.1361H47.6129H52.976C55.2298 32.1361 57.1496 32.5171 58.7356 33.2789C60.3215 34.0407 61.5041 35.0882 62.2831 36.4214C63.09 37.7545 63.4935 39.2646 63.4935 40.9515ZM52.7256 45.0734C54.3394 45.0734 55.5358 44.7197 56.3149 44.0123C57.094 43.2777 57.4835 42.2574 57.4835 40.9515C57.4835 38.1763 55.8975 36.7887 52.7256 36.7887H48.0929V45.0734H52.7256Z" fill="white"/>
<path d="M88.8856 40.9515C88.8856 42.4751 88.5099 43.9035 87.7587 45.2367C87.0353 46.5699 85.8806 47.6446 84.2946 48.4608C82.7365 49.277 80.761 49.6852 78.3681 49.6852H73.485V60.6227H67.642V32.1361H78.3681C80.6218 32.1361 82.5417 32.5171 84.1277 33.2789C85.7136 34.0407 86.8961 35.0882 87.6752 36.4214C88.4821 37.7545 88.8856 39.2646 88.8856 40.9515ZM78.1177 45.0734C79.7315 45.0734 80.9279 44.7197 81.707 44.0123C82.486 43.2777 82.8756 42.2574 82.8756 40.9515C82.8756 38.1763 81.2896 36.7887 78.1177 36.7887H73.485V45.0734H78.1177Z" fill="white"/>
<path d="M10.032 78.6614C8.00084 78.6614 6.16446 78.3213 4.52284 77.6411C2.90905 76.9609 1.62915 75.9815 0.683134 74.7027C-0.262881 73.4239 0.0588333 71.9139 0.0310094 70.1726H5.48277C5.56624 71.3425 5.9836 72.2676 6.73485 72.9478C7.51392 73.628 8.57123 73.9681 9.90678 73.9681C11.2702 73.9681 91.0006 74.7979 91.7797 74.1721C92.5588 73.5192 92.9483 72.6757 92.9483 71.6418C92.9483 70.7984 92.684 70.1046 92.1553 69.5604C91.6266 69.0163 90.9589 68.5946 90.152 68.2953C89.3729 67.9688 88.2878 67.6151 86.8966 67.2342C85.0045 66.69 83.4603 66.1595 82.2639 65.6425C81.0953 65.0984 80.0797 64.2957 79.2171 63.2346C78.3824 62.1463 77.9651 60.7043 77.9651 58.9086C77.9651 57.2217 78.3963 55.7525 79.2589 54.5009C80.1214 53.2494 81.3318 52.2971 82.8899 51.6441C84.4481 50.9639 86.2288 50.6238 88.2321 50.6238C91.2371 50.6238 93.6717 51.3448 95.5359 52.7868C97.4279 54.2017 98.4714 56.1878 98.6661 58.7453H92.2388C92.1831 57.7659 91.7519 56.9632 90.945 56.3375C90.1659 55.6845 89.1225 55.358 87.8148 55.358C86.674 55.358 85.7558 55.6437 85.0602 56.215C84.3924 56.7864 84.0585 57.6162 84.0585 58.7045C84.0585 59.4663 84.3089 60.1057 84.8098 60.6227C85.3384 61.1124 85.9784 61.5205 86.7296 61.847C87.5087 62.1463 88.5938 62.5 89.985 62.9081C91.8771 63.4523 93.4213 63.9965 94.6177 64.5406C95.8142 65.0848 96.8436 65.901 97.7062 66.9893C98.5687 68.0776 99 69.506 99 71.2745C99 72.7982 98.5965 74.213 97.7896 75.5189C96.9828 76.8249 95.8003 77.8724 94.2421 78.6614C92.684 79.4232 12.1744 78.6614 10.032 78.6614Z" fill="white"/>
</g>
<defs>
<clipPath id="clip0_201_3">
<rect width="99" height="79" fill="white"/>
</clipPath>
</defs>
</svg>